<svg height="512" viewBox="0 0 512 512" width="512" xmlns="http://www.w3.org/2000/svg"><g id="Out_line" data-name="Out line"><path d="m416 176c0-88.22461-71.77539-160-160-160s-160 71.77539-160 160a159.80518 159.80518 0 0 0 5.60986 42.09473h-.00048a158.21817 158.21817 0 0 0 29.25488 57.62011l67.08594 84.49366a23.93675 23.93675 0 0 0 .18066 31.7915 23.94341 23.94341 0 0 0 0 32 23.98433 23.98433 0 0 0 17.86914 40h.80493a40.00381 40.00381 0 0 0 78.38989 0h.80518a23.98433 23.98433 0 0 0 17.86914-40 23.94341 23.94341 0 0 0 0-32 23.93675 23.93675 0 0 0 .18066-31.7915l67.07129-84.47608a158.23741 158.23741 0 0 0 29.26953-57.63769h-.00048a159.80518 159.80518 0 0 0 5.60986-42.09473zm-160-144c79.40234 0 144 64.59766 144 144a144.26946 144.26946 0 0 1 -3.57324 32h-280.85352a144.26946 144.26946 0 0 1 -3.57324-32c0-79.40234 64.59766-144 144-144zm48 344a8.00917 8.00917 0 0 1 -8 8h-80a8 8 0 0 1 0-16h80a8.00917 8.00917 0 0 1 8 8zm0 32a8.00917 8.00917 0 0 1 -8 8h-80a8 8 0 0 1 0-16h80a8.00917 8.00917 0 0 1 8 8zm-48 72a24.0384 24.0384 0 0 1 -22.62378-16h45.24778a24.03919 24.03919 0 0 1 -22.624 16zm40-32h-80a8 8 0 0 1 0-16h80a8 8 0 0 1 0 16zm72.60449-182.23438-68.72119 86.55323a24.04321 24.04321 0 0 0 -3.8833-.31885h-80a24.04321 24.04321 0 0 0 -3.8833.31885l-68.73584-86.5708a142.46264 142.46264 0 0 1 -23.18555-41.74805h271.60938a142.505 142.505 0 0 1 -23.2002 41.76562z"/><path d="m188.80957 86.44922-9.61914-12.78516a129.30148 129.30148 0 0 0 -18.51758 16.99707l11.916 10.67774a113.26528 113.26528 0 0 1 16.22072-14.88965z"/><path d="m161.28809 116.27832-13.51954-8.55664a127.82169 127.82169 0 0 0 -19.4873 59.751l15.96484 1.05468a111.78188 111.78188 0 0 1 17.042-52.24904z"/><path d="m224 288h64v16h-64z"/></g></svg>